<?xml version="1.0" encoding="UTF-8" standalone="no"?>
<!-- Created with Inkscape (http://www.inkscape.org/) -->

<svg
   width="297mm"
   height="210mm"
   viewBox="0 0 1122.5197 793.70081"
   version="1.1"
   id="svg5"
   inkscape:version="1.2 (dc2aedaf03, 2022-05-15)"
   sodipodi:docname="Diferença.svg"
   xmlns:inkscape="http://www.inkscape.org/namespaces/inkscape"
   xmlns:sodipodi="http://sodipodi.sourceforge.net/DTD/sodipodi-0.dtd"
   xmlns="http://www.w3.org/2000/svg"
   xmlns:svg="http://www.w3.org/2000/svg">
  <sodipodi:namedview
     id="namedview7"
     pagecolor="#ffffff"
     bordercolor="#666666"
     borderopacity="1.0"
     inkscape:showpageshadow="2"
     inkscape:pageopacity="0.0"
     inkscape:pagecheckerboard="0"
     inkscape:deskcolor="#d1d1d1"
     inkscape:document-units="mm"
     showgrid="false"
     inkscape:zoom="0.74713294"
     inkscape:cx="560.81051"
     inkscape:cy="432.98854"
     inkscape:window-width="1440"
     inkscape:window-height="838"
     inkscape:window-x="-8"
     inkscape:window-y="-8"
     inkscape:window-maximized="1"
     inkscape:current-layer="layer1" />
  <defs
     id="defs2" />
  <g
     inkscape:label="Camada 1"
     inkscape:groupmode="layer"
     id="layer1">
    <path
       id="path803"
       style="fill:#d45500;fill-opacity:1;stroke:#ef3b3a;stroke-width:1.90033;stroke-linejoin:round;stroke-miterlimit:4;stroke-dasharray:none;stroke-opacity:1"
       d="m 872.36262,30.476905 v 21.02562 a 74.227254,73.523414 0 0 1 11.18471,-0.88182 74.227254,73.523414 0 0 1 74.2274,73.523555 74.227254,73.523414 0 0 1 -74.2274,73.52356 74.227254,73.523414 0 0 1 -11.18471,-0.88183 v 19.01066 h 205.39618 v -18.20232 a 75.244069,74.530588 0 0 1 -12.2025,1.08024 75.244069,74.530588 0 0 1 -75.24384,-74.53031 75.244069,74.530588 0 0 1 75.24384,-74.530305 75.244069,74.530588 0 0 1 12.2025,1.00675 v -20.1438 z" />
    <path
       id="path327"
       style="fill:#ff0000;fill-opacity:1;stroke:#ef3b3a;stroke-width:1.84667;stroke-linejoin:round;stroke-miterlimit:4;stroke-dasharray:none;stroke-opacity:1"
       d="m 987.77552,232.55712 a 103.39396,112.09068 0 0 0 -103.39386,112.09123 103.39396,112.09068 0 0 0 50.02112,95.79103 l 54.22817,-100.95947 49.45395,102.77399 a 103.39396,112.09068 0 0 0 53.0845,-97.60555 103.39396,112.09068 0 0 0 -103.39388,-112.09123 z" />
    <path
       id="rect692"
       style="fill:#ffff00;fill-opacity:1;stroke:#ef3b3a;stroke-width:2.33592;stroke-linejoin:round;stroke-miterlimit:4;stroke-dasharray:none;stroke-opacity:1"
       d="M 624.9666,32.034182 V 232.97894 h 34.71415 V 114.4093 h 133.89766 v 118.56964 h 30.99451 V 32.034182 Z" />
    <path
       id="path873"
       style="fill:#0000ff;fill-opacity:1;stroke:#ef3b3a;stroke-width:2.03268;stroke-linejoin:round;stroke-miterlimit:4;stroke-dasharray:none;stroke-opacity:1"
       d="M 727.32255,267.44888 A 103.8459,100.62408 0 0 0 623.47674,368.07287 103.8459,100.62408 0 0 0 727.32255,468.69685 103.8459,100.62408 0 0 0 828.81801,388.15701 l -19.88222,10.84804 -27.93992,51.01955 -26.09213,-52.07483 -48.89217,-29.15725 49.90191,-27.22742 27.94148,-51.01954 26.09211,52.07482 20.27652,12.09211 A 103.8459,100.62408 0 0 0 727.32255,267.44888 Z" />
    <path
       id="path986"
       style="fill:#d45500;fill-opacity:1;stroke:#ef3b3a;stroke-width:2.11985;stroke-linejoin:round;stroke-miterlimit:4;stroke-dasharray:none;stroke-opacity:1"
       d="m 1003.7029,495.03038 a 103.12282,104.59576 0 0 0 -103.12386,104.5952 103.12282,104.59576 0 0 0 103.12386,104.59519 103.12282,104.59576 0 0 0 67.2538,-25.40637 V 520.35216 a 103.12282,104.59576 0 0 0 -67.2538,-25.32178 z" />
    <path
       id="path1095"
       style="fill:#000080;fill-opacity:1;stroke:#ef3b3a;stroke-width:2.07758;stroke-linejoin:round;stroke-miterlimit:4;stroke-dasharray:none;stroke-opacity:1"
       inkscape:transform-center-x="-3.7383956"
       inkscape:transform-center-y="-8.554273"
       d="m 493.04384,12.381828 -41.03087,74.761205 -76.79647,3.49962 49.12747,67.995737 -20.83981,85.10421 40.41824,-18.53359 c -3.34429,-0.85386 -6.29627,-1.86433 -8.85221,-3.03381 v -15.28506 c 4.38712,1.89583 9.80962,3.61296 16.26844,5.15332 5.36051,1.25475 10.84448,1.99075 16.44757,2.22341 l 7.11218,-3.26238 3.85788,2.9628 c 6.18964,-0.71315 11.12942,-2.41754 14.80839,-5.12214 4.99645,-3.67315 7.4945,-8.65016 7.4945,-14.93008 0,-4.14711 -0.91455,-7.64299 -2.74252,-10.48673 -1.82797,-2.84373 -4.99649,-5.45024 -9.50548,-7.82001 -4.50899,-2.36979 -10.66222,-4.9763 -18.46155,-7.82002 -11.21155,-3.91014 -19.62026,-8.70927 -25.22603,-14.39675 -5.60578,-5.68746 -8.40818,-13.44886 -8.40818,-23.28344 0,-6.63537 1.76582,-12.38201 5.2999,-17.24006 3.53407,-4.85804 8.40964,-8.58994 14.62474,-11.19669 6.21509,-2.606747 13.46518,-3.910007 21.75197,-3.910007 7.06815,0 13.58901,0.65163 19.56037,1.95501 5.97137,1.303377 11.45413,3.020507 16.45058,5.153317 l -5.11776,13.68676 c -4.50899,-1.89582 -9.44483,-3.49669 -14.80688,-4.80006 -5.36204,-1.30338 -10.8463,-1.95501 -16.45208,-1.95501 -8.16493,0 -14.31816,1.71888 -18.46155,5.15505 -4.1434,3.31769 -6.21507,7.76108 -6.21507,13.33006 0,4.2656 0.91304,7.81961 2.74101,10.66335 1.82797,2.84373 4.81418,5.45024 8.95758,7.82001 4.1434,2.25129 9.7497,4.62179 16.81786,7.11006 7.67747,2.72525 14.13655,5.68751 19.37673,8.8867 5.36204,3.08072 9.38333,6.81261 12.06435,11.1967 2.80289,4.38408 4.20409,9.89471 4.20409,16.5301 0,11.25644 -4.2051,20.02521 -12.61376,26.30512 -3.45615,2.58119 -7.41379,4.62182 -11.85814,6.14208 L 538.81465,260.103 533.81129,171.87494 594.15416,117.114 519.66822,95.324963 Z" />
    <path
       id="text1258"
       style="font-style:normal;font-weight:normal;font-size:328.291px;line-height:1.25;font-family:sans-serif;letter-spacing:0px;word-spacing:0px;fill:#000000;fill-opacity:1;stroke:none;stroke-width:8.20727"
       d="M 290.84921,26.876934 213.08749,263.67382 h 55.54493 l 13.92382,-41.28712 h 45.26758 v -46.83789 h -30.75195 l 22.06836,-75.46289 8.68359,30.09375 V 26.876934 Z" />
    <path
       id="path1419"
       style="fill:#0000ff;fill-opacity:1;stroke:#ef3b3a;stroke-width:2.51339;stroke-linejoin:round;stroke-miterlimit:4;stroke-dasharray:none;stroke-opacity:1"
       d="m 761.57807,523.33334 a 120.46049,117.78359 0 0 0 -120.46094,117.78321 120.46049,117.78359 0 0 0 58.20703,100.61914 128.4912,137.86034 0 0 1 -1.99219,-22.98828 128.4912,137.86034 0 0 1 128.49219,-137.85938 128.4912,137.86034 0 0 1 43.83203,8.28321 120.46049,117.78359 0 0 0 -108.07812,-65.8379 z" />
  </g>
</svg>
