<?xml version="1.0" encoding="UTF-8" standalone="no"?>
<!-- Created with Inkscape (http://www.inkscape.org/) -->

<svg
   width="297mm"
   height="210mm"
   viewBox="0 0 297 210"
   version="1.1"
   id="svg1482"
   inkscape:version="1.2 (dc2aedaf03, 2022-05-15)"
   sodipodi:docname="Exclusão.svg"
   xmlns:inkscape="http://www.inkscape.org/namespaces/inkscape"
   xmlns:sodipodi="http://sodipodi.sourceforge.net/DTD/sodipodi-0.dtd"
   xmlns="http://www.w3.org/2000/svg"
   xmlns:svg="http://www.w3.org/2000/svg">
  <sodipodi:namedview
     id="namedview1484"
     pagecolor="#ffffff"
     bordercolor="#666666"
     borderopacity="1.0"
     inkscape:showpageshadow="2"
     inkscape:pageopacity="0.0"
     inkscape:pagecheckerboard="0"
     inkscape:deskcolor="#d1d1d1"
     inkscape:document-units="mm"
     showgrid="false"
     inkscape:zoom="0.74713294"
     inkscape:cx="560.81051"
     inkscape:cy="396.85039"
     inkscape:window-width="1440"
     inkscape:window-height="838"
     inkscape:window-x="-8"
     inkscape:window-y="-8"
     inkscape:window-maximized="1"
     inkscape:current-layer="layer1"
     showguides="true">
    <sodipodi:guide
       position="266.97184,90.268956"
       orientation="0,-1"
       id="guide1850"
       inkscape:locked="false" />
  </sodipodi:namedview>
  <defs
     id="defs1479" />
  <g
     inkscape:label="Camada 1"
     inkscape:groupmode="layer"
     id="layer1">
    <path
       id="rect1611"
       style="fill:#00ff00;stroke:#ef3b3a;stroke-width:0.426536;stroke-linejoin:round"
       d="M 13.33781,9.4422186 V 60.6757 H 60.321718 V 9.4422186 Z M 36.938318,19.878797 A 15.117493,16.484831 0 0 1 52.056,36.36349 15.117493,16.484831 0 0 1 36.938318,52.848527 15.117493,16.484831 0 0 1 21.820954,36.36349 15.117493,16.484831 0 0 1 36.938318,19.878797 Z" />
    <path
       id="path1783"
       style="fill:#ffff00;stroke:#ef3b3a;stroke-width:0.500755;stroke-linejoin:round"
       d="M 98.33814,8.7825097 A 27.704357,27.3502 0 0 0 70.633662,36.132746 27.704357,27.3502 0 0 0 98.33814,63.482583 27.704357,27.3502 0 0 0 126.04222,36.132746 27.704357,27.3502 0 0 0 98.33814,8.7825097 Z m 0.1824,2.8225923 5.61884,16.809874 17.9329,-0.06085 -14.38372,10.494121 5.60005,16.895632 L 98.78035,45.420063 84.308098,55.923276 89.725369,39.048199 75.180696,28.643773 93.03735,28.538662 Z m 5.73073,16.96004 -11.03305,0.02055 -3.371371,10.382686 8.949201,6.395974 8.90247,-6.429566 z" />
    <path
       id="path1859"
       style="fill:#ff2a2a;stroke:#ef3b3a;stroke-width:0.564574;stroke-linejoin:round"
       inkscape:transform-center-x="-2.5605498"
       inkscape:transform-center-y="-1.919805"
       d="m 159.93805,5.2250852 -8.94776,18.9901418 -21.02266,3.53586 15.64905,14.214692 -3.06735,20.702026 18.61981,-10.204376 19.12706,9.258495 -4.14163,-20.52171 14.88841,-14.979826 -21.17948,-2.478318 z m 0.0691,6.2731298 7.64976,14.937245 16.88236,2.287575 -12.12053,11.751152 2.99824,16.454905 -15.14049,-7.674783 -15.02927,7.881595 2.76344,-16.494008 -12.2871,-11.583874 16.84825,-2.519156 z m 0.59805,7.404535 -5.41746,10.609749 -11.98276,1.637587 8.61417,8.331727 -2.1149,11.683365 10.74148,-5.460204 10.67546,5.582733 -1.97535,-11.706394 8.71252,-8.232671 -11.96238,-1.774881 z m -0.11208,8.755357 2.54815,5.514945 6.0771,1.06754 -4.5607,4.081143 0.84259,5.998093 -5.36653,-2.99231 -5.55613,2.639077 1.24351,-5.930757 -4.27629,-4.366596 6.13512,-0.673024 z" />
    <path
       id="rect1938"
       style="fill:#ff9955;stroke:#ef3b3a;stroke-width:0.665001;stroke-linejoin:round"
       d="M 196.54298,7.4368887 V 72.596739 h 32.57993 v -4.8395 c -1.13382,0.35375 -2.33095,0.53123 -3.59203,0.53123 -5.07114,0 -9.18299,-2.65846 -12.3362,-7.97522 -3.07194,-5.14203 -4.60799,-11.63176 -4.60799,-19.46961 0,-7.58824 1.5034,-14.02847 4.51032,-19.32027 3.13695,-5.54141 7.12726,-8.31215 11.97085,-8.31215 1.43655,0 2.78783,0.1864 4.05505,0.55603 V 7.4368887 Z m 32.57993,6.3303603 v 14.27252 c 0.23445,0.14745 0.4679,0.3054 0.69918,0.48524 0.84519,0.67395 1.70664,1.60995 2.58434,2.8081 0.73141,0.99845 1.13778,1.4981 1.21905,1.4981 0.19504,0 0.35727,-0.10004 0.4873,-0.29973 0.29257,-0.37442 0.99982,-2.08412 2.12132,-5.1294 1.13776,-3.04528 1.70636,-4.805 1.70636,-5.27926 0,-0.42435 -0.16224,-0.91123 -0.48731,-1.46038 -2.17485,-3.61228 -4.95202,-5.9098 -8.33024,-6.89519 z m 0,14.27252 c -1.06716,-0.67116 -2.16683,-1.01234 -3.29954,-1.01234 -2.38929,0 -4.29905,1.37286 -5.72937,4.11861 -1.31654,2.54605 -1.97456,5.6914 -1.97456,9.4356 0,3.79412 0.65802,6.97672 1.97456,9.54774 1.43032,2.79566 3.34008,4.19354 5.72937,4.19354 1.14839,0 2.24763,-0.31854 3.29954,-0.94413 z m 0,25.33902 v 14.37845 c 3.32324,-1.03686 6.10035,-3.59235 8.33024,-7.66827 0.34132,-0.64899 0.51211,-1.17313 0.51211,-1.57251 0,-0.27457 -0.59374,-1.79749 -1.78025,-4.5682 -1.15401,-2.67086 -1.86074,-4.23103 -2.1208,-4.68033 -0.16254,-0.27458 -0.32529,-0.41186 -0.48783,-0.41186 -0.0813,0 -0.47908,0.47464 -1.19424,1.42317 -0.86144,1.12326 -1.70683,1.99648 -2.53576,2.62051 -0.2382,0.17821 -0.48011,0.33431 -0.72347,0.47904 z" />
    <rect
       style="fill:#ff2a2a;stroke:#ef3b3a;stroke-width:0.665001;stroke-linejoin:round"
       id="rect1997"
       width="58.431705"
       height="58.431705"
       x="95.261383"
       y="114.73862" />
    <path
       sodipodi:type="star"
       style="fill:#ff2a2a;stroke:#ef3b3a;stroke-width:0.665001;stroke-linejoin:round"
       id="path2051"
       inkscape:flatsided="false"
       sodipodi:sides="5"
       sodipodi:cx="93.490723"
       sodipodi:cy="102.69815"
       sodipodi:r1="53.932735"
       sodipodi:r2="26.966368"
       sodipodi:arg1="1.0471976"
       sodipodi:arg2="1.6755161"
       inkscape:rounded="0"
       inkscape:randomized="0"
       d="M 120.45709,149.40527 90.671969,129.51679 57.402677,142.77798 67.113635,108.30477 44.220718,80.761728 80.007539,79.344591 99.128231,49.060865 111.53475,82.658234 146.2449,91.484907 118.12573,113.66636 Z"
       inkscape:transform-center-x="0.015522893"
       inkscape:transform-center-y="-5.1353561"
       transform="rotate(-6.0533615,487.13032,-165.28835)" />
  </g>
</svg>
