<?xml version="1.0" encoding="UTF-8" standalone="no"?>
<!-- Created with Inkscape (http://www.inkscape.org/) -->

<svg
   width="297mm"
   height="210mm"
   viewBox="0 0 297 210"
   version="1.1"
   id="svg127"
   inkscape:version="1.2 (dc2aedaf03, 2022-05-15)"
   sodipodi:docname="Ferramenta União.svg"
   xmlns:inkscape="http://www.inkscape.org/namespaces/inkscape"
   xmlns:sodipodi="http://sodipodi.sourceforge.net/DTD/sodipodi-0.dtd"
   xmlns="http://www.w3.org/2000/svg"
   xmlns:svg="http://www.w3.org/2000/svg">
  <sodipodi:namedview
     id="namedview129"
     pagecolor="#ffffff"
     bordercolor="#666666"
     borderopacity="1.0"
     inkscape:showpageshadow="2"
     inkscape:pageopacity="0.0"
     inkscape:pagecheckerboard="0"
     inkscape:deskcolor="#d1d1d1"
     inkscape:document-units="mm"
     showgrid="false"
     inkscape:zoom="0.74713294"
     inkscape:cx="552.77981"
     inkscape:cy="348.6662"
     inkscape:window-width="1440"
     inkscape:window-height="838"
     inkscape:window-x="-8"
     inkscape:window-y="-8"
     inkscape:window-maximized="1"
     inkscape:current-layer="layer1" />
  <defs
     id="defs124">
    <rect
       x="714.73224"
       y="556.79516"
       width="252.96703"
       height="155.26019"
       id="rect2350" />
  </defs>
  <g
     inkscape:label="Camada 1"
     inkscape:groupmode="layer"
     id="layer1">
    <path
       id="path343"
       style="fill:#00ff00;fill-opacity:1;stroke:#ef3b3a;stroke-width:0.318453;stroke-linejoin:round;stroke-opacity:0"
       inkscape:transform-center-x="1.0054381e-06"
       inkscape:transform-center-y="-5.790306"
       d="m 32.602123,13.817045 a 18.104284,18.873237 0 0 0 -18.10423,18.873184 18.104284,18.873237 0 0 0 8.714,16.123162 l -9.51843,17.186631 h 19.24095 19.24096 l -9.62047,-17.370829 -0.0749,-0.135173 a 18.104284,18.873237 0 0 0 8.22635,-15.803791 18.104284,18.873237 0 0 0 -18.10423,-18.873184 z" />
    <path
       id="path1239"
       style="fill:#ff0000;fill-opacity:1;stroke:#ef3b3a;stroke-width:0.557752;stroke-linejoin:round;stroke-opacity:0"
       d="m 92.428424,12.837492 -1.780378,3.413394 a 22.160023,24.532184 0 0 0 -20.238771,24.430956 22.160023,24.532184 0 0 0 2.088099,10.372884 l -4.90697,9.408379 h 11.898739 a 22.160023,24.532184 0 0 0 13.080168,4.750933 22.160023,24.532184 0 0 0 13.080569,-4.750933 h 11.61616 l -4.74755,-9.102838 A 22.160023,24.532184 0 0 0 114.72934,40.681842 22.160023,24.532184 0 0 0 94.190273,16.216227 Z" />
    <path
       id="path1453"
       style="fill:#ff6600;fill-opacity:1;stroke:#ef3b3a;stroke-width:0.532729;stroke-linejoin:round;stroke-opacity:0"
       d="m 157.2189,14.099314 a 20.464988,24.855328 0 0 0 -19.27974,16.570138 h -8.39331 v 23.13569 h 11.27973 a 20.464988,24.855328 0 0 0 16.39332,10.004586 20.464988,24.855328 0 0 0 16.39295,-10.004586 h 13.08168 V 30.669452 H 176.51218 A 20.464988,24.855328 0 0 0 157.2189,14.099314 Z" />
    <path
       id="path1668"
       style="fill:#008000;fill-opacity:1;stroke:#ef3b3a;stroke-width:0.418221;stroke-linejoin:round;stroke-opacity:0"
       inkscape:transform-center-y="-4.1078788"
       d="m 28.760444,77.967018 -8.47384,13.091476 -8.47384,13.091166 7.277181,0.0705 -7.501215,11.87388 h 8.487779 l -1.071214,1.68455 -8.675436,13.64451 7.269022,0.0186 -8.1155224,12.89109 16.9918754,-0.0233 16.991875,-0.0236 -8.113823,-12.79881 9.511738,0.0242 -8.592146,-13.68862 -1.085152,-1.72867 h 7.54235 l -7.401946,-11.71668 9.769767,0.0944 -8.168556,-13.252406 z" />
    <path
       id="rect1731"
       style="fill:#e9afaf;fill-opacity:1;stroke:#ef3b3a;stroke-width:0.665001;stroke-linejoin:round;stroke-opacity:0"
       d="m 79.84961,79.007132 -9.20047,16.254302 -9.20047,16.254306 12.21062,-0.10387 v 16.97002 l -11.55795,0.15555 9.74308,14.72261 9.74256,14.72314 9.25214,-14.97893 9.25164,-14.97894 -12.26592,0.16537 v -16.89974 l 10.97762,-0.0935 -9.47642,-16.095136 z" />
    <path
       id="path1896"
       style="fill:#0000ff;fill-opacity:1;stroke:#ef3b3a;stroke-width:0.41148;stroke-linejoin:round;stroke-opacity:0"
       inkscape:transform-center-x="4.1457557e-06"
       inkscape:transform-center-y="-7.2816913"
       d="m 232.79732,18.959207 -9.45748,21.845249 -1.16848,2.6989 V 23.287637 h -25.04697 v 33.402249 h 19.33805 l -2.58007,5.95981 h 18.91495 18.91495 l -3.56635,-8.23739 H 267.142 V 23.034327 h -23.52906 v 20.907329 l -1.35815,-3.1372 z" />
    <path
       id="path2010"
       style="fill:#800080;fill-opacity:1;stroke:#ef3b3a;stroke-width:0.49004;stroke-linejoin:round;stroke-opacity:0"
       d="m 138.71539,72.954046 -3.84421,3.928442 a 27.886803,26.293213 0 0 0 -22.5211,23.015647 l -4.69119,4.794035 5.49786,4.86068 a 27.886803,26.293213 0 0 0 21.37802,18.90066 l 6.51381,5.75933 5.93143,-6.06164 a 27.886803,26.293213 0 0 0 20.54706,-20.9982 l 4.5775,-4.67827 -4.52272,-3.998725 A 27.886803,26.293213 0 0 0 142.75959,76.529538 Z" />
    <path
       id="path2227"
       style="fill:#d45500;fill-opacity:1;stroke:#ef3b3a;stroke-width:0.665001;stroke-linejoin:round;stroke-opacity:0"
       d="m 202.56317,76.138481 a 27.622259,14.873525 0 0 0 -27.62209,14.87351 27.622259,14.873525 0 0 0 20.08198,14.306619 l -2.42311,9.73067 11.72332,-3.961 12.00753,2.98948 -3.15587,-9.34 a 27.622259,14.873525 0 0 0 17.01033,-13.725769 27.622259,14.873525 0 0 0 -27.62209,-14.87351 z" />
    <path
       id="text2348"
       style="font-style:normal;font-variant:normal;font-weight:normal;font-stretch:normal;font-size:40px;line-height:1.25;font-family:'Adobe Gothic Std';-inkscape-font-specification:'Adobe Gothic Std';letter-spacing:0px;word-spacing:0px;white-space:pre;shape-inside:url(#rect2350);fill:#ffff00;stroke-width:1.7171"
       d="m 169.28198,131.43996 -3.94601,47.80587 h 10.24435 l 1.13842,-18.40147 c 0.37942,-5.90581 0.75877,-12.99247 0.91054,-19.02261 h 0.2279 c 1.36591,5.84364 3.1868,12.3088 5.08392,17.71726 l 6.45026,19.02261 h 8.49922 l 7.1329,-19.33369 c 1.973,-5.34631 4.09813,-11.68687 5.7676,-17.40618 h 0.22737 c -0.0759,4.84898 0.30367,12.55726 0.60721,18.83605 l 1.06246,18.58803 h 10.69961 l -0.35916,-5.14182 3.99046,15.71067 h 11.19931 l 5.38469,-20.24992 c 1.36402,-5.03142 2.36883,-9.81459 3.30212,-15.21871 h 0.14367 c 0.71791,5.40412 1.57937,10.24939 2.79982,15.21871 l 4.73821,20.24992 h 11.27116 l 13.06587,-47.76762 h -10.69651 l -4.52324,20.43597 c -1.14867,5.71471 -2.22515,11.11899 -3.08663,16.77158 h -0.21549 c -0.71791,-5.59047 -1.79488,-10.87053 -3.01532,-16.46102 l -4.66638,-20.74653 h -10.48154 l -5.02552,20.49849 c -1.43584,5.96317 -2.79975,11.49159 -3.58946,16.83359 h -0.21548 c -0.78971,-5.09354 -1.86616,-10.99486 -3.0148,-16.70957 l -4.23593,-20.62251 h -5.36763 l -0.74103,-10.6071 h -13.81106 l -6.60218,17.96583 c -1.973,5.71929 -3.71799,11.50073 -5.08392,16.84702 h -0.2279 c -1.29004,-5.47063 -2.95943,-11.06556 -4.85654,-16.84702 L 183.169,131.43996 Z" />
  </g>
</svg>
