<?xml version="1.0" encoding="UTF-8" standalone="no"?>
<!-- Created with Inkscape (http://www.inkscape.org/) -->

<svg
   width="297mm"
   height="210mm"
   viewBox="0 0 1122.5197 793.7008"
   version="1.1"
   id="svg5"
   inkscape:version="1.2 (dc2aedaf03, 2022-05-15)"
   sodipodi:docname="Texto e Propriedades.svg"
   xmlns:inkscape="http://www.inkscape.org/namespaces/inkscape"
   xmlns:sodipodi="http://sodipodi.sourceforge.net/DTD/sodipodi-0.dtd"
   xmlns="http://www.w3.org/2000/svg"
   xmlns:svg="http://www.w3.org/2000/svg">
  <sodipodi:namedview
     id="namedview7"
     pagecolor="#ffffff"
     bordercolor="#666666"
     borderopacity="1.0"
     inkscape:showpageshadow="2"
     inkscape:pageopacity="0.0"
     inkscape:pagecheckerboard="0"
     inkscape:deskcolor="#d1d1d1"
     inkscape:document-units="mm"
     showgrid="false"
     inkscape:zoom="0.74713294"
     inkscape:cx="663.87115"
     inkscape:cy="396.85039"
     inkscape:window-width="1440"
     inkscape:window-height="838"
     inkscape:window-x="-8"
     inkscape:window-y="-8"
     inkscape:window-maximized="1"
     inkscape:current-layer="layer1" />
  <defs
     id="defs2">
    <rect
       x="139.19879"
       y="132.50654"
       width="868.65398"
       height="439.01157"
       id="rect380" />
    <rect
       x="200.76748"
       y="121.79894"
       width="721.42449"
       height="455.07296"
       id="rect374" />
    <rect
       x="239.58253"
       y="129.82964"
       width="566.16431"
       height="428.30397"
       id="rect368" />
    <rect
       x="133.84499"
       y="84.322343"
       width="847.23878"
       height="543.41066"
       id="rect362" />
    <rect
       x="121.79894"
       y="86.999243"
       width="856.60793"
       height="539.39531"
       id="rect356" />
    <rect
       x="194.07523"
       y="149.90639"
       width="200.76748"
       height="429.64242"
       id="rect350" />
    <rect
       x="228.87493"
       y="143.21414"
       width="690.64015"
       height="430.98087"
       id="rect344" />
    <rect
       x="167.30624"
       y="135.18344"
       width="768.27024"
       height="420.27327"
       id="rect338" />
    <rect
       x="898.09988"
       y="507.27251"
       width="643.7944"
       height="318.55107"
       id="rect332" />
    <rect
       x="262.33618"
       y="165.96779"
       width="737.48589"
       height="389.48892"
       id="rect326" />
    <rect
       x="685.28635"
       y="302.48968"
       width="299.81278"
       height="113.76824"
       id="rect320" />
    <rect
       x="575.53345"
       y="269.02843"
       width="271.70533"
       height="327.92022"
       id="rect314" />
    <rect
       x="269.02843"
       y="188.72144"
       width="368.07372"
       height="252.96703"
       id="rect308" />
  </defs>
  <g
     inkscape:label="Camada 1"
     inkscape:groupmode="layer"
     id="layer1">
    <g
       aria-label="Isaque
Oliveira"
       id="text63"
       style="font-size:200px;line-height:1;letter-spacing:4.89px;word-spacing:9.76px"
       transform="translate(-202.10594,-163.29089)">
      <path
         d="M 313.40284,170.73511 V 304.03589 H 273.7544 V 170.73511 Z"
         style="font-family:'Bauhaus 93';-inkscape-font-specification:'Bauhaus 93, ';text-align:center;baseline-shift:baseline;text-anchor:middle"
         id="path277" />
      <path
         d="m 403.25378,208.0398 v 38.47656 q -7.71484,0 -10.64453,2.92969 -2.83203,2.83203 -3.61328,11.32813 -2.53907,28.22265 -21.875,39.84375 -10.25391,6.05468 -29.10157,6.05468 h -5.07812 v -38.67187 h 1.66016 q 8.78906,0 12.5,-3.61328 3.80859,-3.71094 4.39453,-12.89063 0.78125,-14.9414 2.73437,-20.99609 2.05078,-6.05469 8.20313,-12.01172 10.74218,-10.44922 29.78515,-10.44922 z"
         style="font-family:'Bauhaus 93';-inkscape-font-specification:'Bauhaus 93, ';text-align:center;baseline-shift:baseline;text-anchor:middle"
         id="path279" />
      <path
         d="m 474.15941,267.51246 v 37.79297 q -4.49219,0.78125 -8.20312,0.78125 -21.97266,0 -36.6211,-14.45313 -14.64844,-14.45312 -14.64844,-36.23047 0,-21.1914 14.7461,-35.9375 14.84375,-14.74609 36.03515,-14.74609 23.63282,0 37.20704,13.86719 13.67187,13.76953 13.67187,37.69531 v 47.7539 h -36.52344 v -45.11718 q 0,-7.71485 -3.80859,-12.30469 -3.71094,-4.58984 -10.05859,-4.58984 -5.76172,0 -9.96094,4.19921 -4.19922,4.19922 -4.19922,9.96094 0,6.05469 3.80859,9.96094 3.8086,3.90625 9.66797,3.90625 4.78516,0 8.88672,-2.53906 z"
         style="font-family:'Bauhaus 93';-inkscape-font-specification:'Bauhaus 93, ';text-align:center;baseline-shift:baseline;text-anchor:middle"
         id="path281" />
      <path
         d="m 602.4869,340.07105 v -79.88281 q 0,-19.4336 -14.16016,-19.4336 -5.76172,0 -9.96094,4.10157 -4.19922,4.0039 -4.19922,9.76562 0,5.76172 4.00391,9.96094 4.10156,4.19922 9.76562,4.19922 4.39454,0 8.98438,-3.61328 v 40.23437 q -6.44531,0.6836 -9.76563,0.6836 -20.3125,0 -35.15625,-15.03907 -14.84375,-15.03906 -14.84375,-35.74218 0,-21.28907 14.94141,-35.9375 14.94141,-14.64844 36.71875,-14.64844 10.9375,0 21.28906,4.78515 10.44922,4.78516 17.1875,12.89063 11.71875,14.0625 11.71875,36.42578 v 81.25 z"
         style="font-family:'Bauhaus 93';-inkscape-font-specification:'Bauhaus 93, ';text-align:center;baseline-shift:baseline;text-anchor:middle"
         id="path283" />
      <path
         d="m 663.13863,208.0398 h 36.52344 v 54.98047 q 0,8.30078 6.93359,8.30078 6.83594,0 6.83594,-8.30078 V 208.0398 h 36.52343 v 54.29688 q 0,18.94531 -12.59765,32.03125 -12.59766,12.98828 -30.85938,12.98828 -20.80078,0 -33.49609,-15.13672 -9.86328,-11.81641 -9.86328,-32.8125 z"
         style="font-family:'Bauhaus 93';-inkscape-font-specification:'Bauhaus 93, ';text-align:center;baseline-shift:baseline;text-anchor:middle"
         id="path285" />
      <path
         d="m 871.83724,261.26246 h -55.3711 q -1.26953,-4.19922 -1.26953,-7.71485 0,-4.88281 1.75781,-9.57031 h 18.55469 q -1.95312,-10.83984 -12.20703,-10.83984 -6.83594,0 -11.13281,5.85937 -4.29688,5.76172 -4.29688,14.84375 0,9.47266 4.10157,15.33203 4.19921,5.85938 10.9375,5.85938 5.46875,0 10.54687,-5.46875 l 20.80078,25 q -14.55078,11.42578 -32.32422,11.42578 -21.67968,0 -36.42578,-14.55078 -14.74609,-14.55078 -14.74609,-36.03516 0,-21.38672 14.84375,-36.13281 14.9414,-14.74609 36.62109,-14.74609 21.19141,0 35.54688,14.45312 14.45312,14.35547 14.45312,35.44922 0,2.14844 -0.39062,6.83594 z"
         style="font-family:'Bauhaus 93';-inkscape-font-specification:'Bauhaus 93, ';text-align:center;baseline-shift:baseline;text-anchor:middle"
         id="path287" />
      <path
         d="m 277.21581,362.3836 q 28.32031,0 48.53516,20.60546 20.3125,20.60547 20.3125,49.31641 0,29.19922 -20.41016,49.60938 -20.41016,20.41015 -49.60937,20.41015 -29.00391,0 -49.51172,-20.50781 -20.50782,-20.50781 -20.50782,-49.51172 0,-29.29687 20.60547,-49.60937 20.70313,-20.3125 50.58594,-20.3125 z m -1.17187,39.25781 q -12.20704,0 -20.80079,8.98437 -8.59375,8.98438 -8.59375,21.67969 0,12.69531 8.59375,21.67969 8.69141,8.98437 20.80079,8.98437 12.30468,0 20.80078,-8.88672 8.59375,-8.98437 8.59375,-21.77734 0,-12.79297 -8.59375,-21.67969 -8.4961,-8.98437 -20.80078,-8.98437 z"
         style="font-family:'Bauhaus 93';-inkscape-font-specification:'Bauhaus 93, ';text-align:center;baseline-shift:baseline;text-anchor:middle"
         id="path289" />
      <path
         d="M 403.39487,365.70391 V 499.00469 H 366.87144 V 365.70391 Z"
         style="font-family:'Bauhaus 93';-inkscape-font-specification:'Bauhaus 93, ';text-align:center;baseline-shift:baseline;text-anchor:middle"
         id="path291" />
      <path
         d="m 466.19503,401.64141 v 97.36328 h -36.52344 v -97.36328 z m -18.16406,-43.45703 q 7.42187,0 12.79296,5.27343 5.46875,5.17579 5.46875,12.30469 0,7.61719 -5.17578,12.5 -5.07812,4.88281 -13.08593,4.88281 -8.00782,0 -13.1836,-4.88281 -5.07812,-4.88281 -5.07812,-12.5 0,-7.1289 5.37109,-12.30469 5.46875,-5.27343 12.89063,-5.27343 z"
         style="font-family:'Bauhaus 93';-inkscape-font-specification:'Bauhaus 93, ';text-align:center;baseline-shift:baseline;text-anchor:middle"
         id="path293" />
      <path
         d="M 565.71395,401.64141 520.20614,502.81328 475.28426,401.64141 h 34.86328 l 10.35157,26.26953 11.32812,-26.26953 z"
         style="font-family:'Bauhaus 93';-inkscape-font-specification:'Bauhaus 93, ';text-align:center;baseline-shift:baseline;text-anchor:middle"
         id="path295" />
      <path
         d="m 670.21331,456.23125 h -55.3711 q -1.26953,-4.19922 -1.26953,-7.71484 0,-4.88281 1.75782,-9.57031 h 18.55468 q -1.95312,-10.83985 -12.20703,-10.83985 -6.83594,0 -11.13281,5.85938 -4.29688,5.76172 -4.29688,14.84375 0,9.47265 4.10157,15.33203 4.19922,5.85937 10.9375,5.85937 5.46875,0 10.54687,-5.46875 l 20.80078,25 q -14.55078,11.42578 -32.32422,11.42578 -21.67968,0 -36.42578,-14.55078 -14.74609,-14.55078 -14.74609,-36.03515 0,-21.38672 14.84375,-36.13282 14.94141,-14.74609 36.62109,-14.74609 21.19141,0 35.54688,14.45313 14.45312,14.35546 14.45312,35.44921 0,2.14844 -0.39062,6.83594 z"
         style="font-family:'Bauhaus 93';-inkscape-font-specification:'Bauhaus 93, ';text-align:center;baseline-shift:baseline;text-anchor:middle"
         id="path297" />
      <path
         d="m 726.76348,401.64141 v 97.36328 h -36.52344 v -97.36328 z m -18.16406,-43.45703 q 7.42187,0 12.79297,5.27343 5.46875,5.17579 5.46875,12.30469 0,7.61719 -5.17579,12.5 -5.07812,4.88281 -13.08593,4.88281 -8.00782,0 -13.1836,-4.88281 -5.07812,-4.88281 -5.07812,-12.5 0,-7.1289 5.37109,-12.30469 5.46875,-5.27343 12.89063,-5.27343 z"
         style="font-family:'Bauhaus 93';-inkscape-font-specification:'Bauhaus 93, ';text-align:center;baseline-shift:baseline;text-anchor:middle"
         id="path299" />
      <path
         d="m 806.55584,400.66485 v 39.0625 q -3.8086,-2.14844 -6.9336,-2.14844 -9.96093,0 -9.96093,15.23437 v 46.19141 h -36.52344 v -53.22266 q 0,-21.09375 11.52344,-33.59375 11.52343,-12.59765 30.76172,-12.59765 4.29687,0 11.13281,1.07422 z"
         style="font-family:'Bauhaus 93';-inkscape-font-specification:'Bauhaus 93, ';text-align:center;baseline-shift:baseline;text-anchor:middle"
         id="path301" />
      <path
         d="m 876.28954,462.48125 v 37.79297 q -4.49219,0.78125 -8.20312,0.78125 -21.97266,0 -36.6211,-14.45312 -14.64843,-14.45313 -14.64843,-36.23047 0,-21.19141 14.74609,-35.9375 14.84375,-14.7461 36.03516,-14.7461 23.63281,0 37.20703,13.86719 13.67187,13.76953 13.67187,37.69531 v 47.75391 H 881.9536 V 453.8875 q 0,-7.71484 -3.80859,-12.30469 -3.71094,-4.58984 -10.05859,-4.58984 -5.76172,0 -9.96094,4.19922 -4.19922,4.19922 -4.19922,9.96094 0,6.05468 3.80859,9.96093 3.8086,3.90625 9.66797,3.90625 4.78516,0 8.88672,-2.53906 z"
         style="font-family:'Bauhaus 93';-inkscape-font-specification:'Bauhaus 93, ';text-align:center;baseline-shift:baseline;text-anchor:middle"
         id="path303" />
    </g>
    <text
       xml:space="preserve"
       id="text306"
       style="fill:black;fill-opacity:1;stroke:none;font-family:sans-serif;font-style:normal;font-weight:normal;font-size:40px;line-height:1.25;letter-spacing:0px;word-spacing:0px;white-space:pre;shape-inside:url(#rect308)" />
    <text
       xml:space="preserve"
       id="text312"
       style="fill:black;fill-opacity:1;stroke:none;font-family:sans-serif;font-style:normal;font-weight:normal;font-size:40px;line-height:1.25;letter-spacing:0px;word-spacing:0px;white-space:pre;shape-inside:url(#rect314)" />
    <text
       xml:space="preserve"
       id="text318"
       style="fill:black;fill-opacity:1;stroke:none;font-family:sans-serif;font-style:normal;font-weight:normal;font-size:40px;line-height:1.25;letter-spacing:0px;word-spacing:0px;white-space:pre;shape-inside:url(#rect320)" />
    <text
       xml:space="preserve"
       id="text324"
       style="fill:black;fill-opacity:1;stroke:none;font-family:sans-serif;font-style:normal;font-weight:normal;font-size:40px;line-height:1.25;letter-spacing:0px;word-spacing:0px;white-space:pre;shape-inside:url(#rect326)" />
    <text
       xml:space="preserve"
       id="text330"
       style="fill:black;fill-opacity:1;stroke:none;font-family:sans-serif;font-style:normal;font-weight:normal;font-size:40px;line-height:1.25;letter-spacing:0px;word-spacing:0px;white-space:pre;shape-inside:url(#rect332)" />
    <text
       xml:space="preserve"
       id="text336"
       style="fill:black;fill-opacity:1;stroke:none;font-family:sans-serif;font-style:normal;font-weight:normal;font-size:40px;line-height:1.25;letter-spacing:0px;word-spacing:0px;white-space:pre;shape-inside:url(#rect338)" />
    <text
       xml:space="preserve"
       id="text342"
       style="fill:black;fill-opacity:1;stroke:none;font-family:sans-serif;font-style:normal;font-weight:normal;font-size:40px;line-height:1.25;letter-spacing:0px;word-spacing:0px;white-space:pre;shape-inside:url(#rect344)" />
    <text
       xml:space="preserve"
       id="text348"
       style="fill:black;fill-opacity:1;stroke:none;font-family:sans-serif;font-style:normal;font-weight:normal;font-size:40px;line-height:1.25;letter-spacing:0px;word-spacing:0px;white-space:pre;shape-inside:url(#rect350)" />
    <text
       xml:space="preserve"
       id="text354"
       style="fill:black;fill-opacity:1;stroke:none;font-family:sans-serif;font-style:normal;font-weight:normal;font-size:40px;line-height:1.25;letter-spacing:0px;word-spacing:0px;white-space:pre;shape-inside:url(#rect356)" />
    <text
       xml:space="preserve"
       id="text360"
       style="fill:black;fill-opacity:1;stroke:none;font-family:sans-serif;font-style:normal;font-weight:normal;font-size:40px;line-height:1.25;letter-spacing:0px;word-spacing:0px;white-space:pre;shape-inside:url(#rect362)" />
    <text
       xml:space="preserve"
       id="text366"
       style="fill:black;fill-opacity:1;stroke:none;font-family:sans-serif;font-style:normal;font-weight:normal;font-size:40px;line-height:1.25;letter-spacing:0px;word-spacing:0px;white-space:pre;shape-inside:url(#rect368)" />
    <text
       xml:space="preserve"
       id="text372"
       style="fill:black;fill-opacity:1;stroke:none;font-family:sans-serif;font-style:normal;font-weight:normal;font-size:40px;line-height:1.25;letter-spacing:0px;word-spacing:0px;white-space:pre;shape-inside:url(#rect374)" />
    <text
       xml:space="preserve"
       id="text378"
       style="fill:black;fill-opacity:1;stroke:none;font-family:sans-serif;font-style:normal;font-weight:normal;font-size:40px;line-height:1.25;letter-spacing:0px;word-spacing:0px;white-space:pre;shape-inside:url(#rect380)" />
  </g>
</svg>
