<?xml version="1.0" encoding="UTF-8" standalone="no"?>
<!-- Created with Inkscape (http://www.inkscape.org/) -->

<svg
   width="297mm"
   height="210mm"
   viewBox="0 0 297 210"
   version="1.1"
   id="svg6037"
   inkscape:version="1.2 (dc2aedaf03, 2022-05-15)"
   sodipodi:docname="Exercicíos Polígonos.svg"
   xmlns:inkscape="http://www.inkscape.org/namespaces/inkscape"
   xmlns:sodipodi="http://sodipodi.sourceforge.net/DTD/sodipodi-0.dtd"
   xmlns="http://www.w3.org/2000/svg"
   xmlns:svg="http://www.w3.org/2000/svg">
  <sodipodi:namedview
     id="namedview6039"
     pagecolor="#ffffff"
     bordercolor="#666666"
     borderopacity="1.0"
     inkscape:showpageshadow="2"
     inkscape:pageopacity="0.0"
     inkscape:pagecheckerboard="0"
     inkscape:deskcolor="#d1d1d1"
     inkscape:document-units="mm"
     showgrid="false"
     inkscape:zoom="0.74713294"
     inkscape:cx="560.81051"
     inkscape:cy="396.85039"
     inkscape:window-width="1440"
     inkscape:window-height="838"
     inkscape:window-x="-8"
     inkscape:window-y="-8"
     inkscape:window-maximized="1"
     inkscape:current-layer="layer1" />
  <defs
     id="defs6034" />
  <g
     inkscape:label="Camada 1"
     inkscape:groupmode="layer"
     id="layer1">
    <path
       sodipodi:type="star"
       style="fill:#ffff00;stroke:#787878;stroke-width:5.065;stroke-linejoin:round;stroke-dasharray:none"
       id="path6045"
       inkscape:flatsided="true"
       sodipodi:sides="5"
       sodipodi:cx="99.510963"
       sodipodi:cy="77.55481"
       sodipodi:r1="17.492807"
       sodipodi:r2="14.151978"
       sodipodi:arg1="0.5543075"
       sodipodi:arg2="1.182626"
       inkscape:rounded="1.3877788e-16"
       inkscape:randomized="0"
       d="M 114.38449,86.76223 95.350359,94.545621 82.066044,78.848289 92.890015,61.363412 112.86391,66.254497 Z"
       inkscape:transform-center-x="1.2856988"
       inkscape:transform-center-y="0.39970606"
       transform="translate(-34.350759,-50.640809)" />
    <path
       sodipodi:type="star"
       style="fill:#999999;stroke:#787878;stroke-width:3.065;stroke-linejoin:round;stroke-dasharray:none"
       id="path6055"
       inkscape:flatsided="true"
       sodipodi:sides="8"
       sodipodi:cx="157.58855"
       sodipodi:cy="74.013489"
       sodipodi:r1="24.259949"
       sodipodi:r2="19.626711"
       sodipodi:arg1="0.5880026"
       sodipodi:arg2="0.98070168"
       inkscape:rounded="1.3877788e-16"
       inkscape:randomized="0"
       d="m 177.77404,87.470487 -15.42773,10.331839 -18.21476,-3.60334 -10.33184,-15.42773 3.60334,-18.214765 15.42773,-10.331839 18.21477,3.603339 10.33183,15.42773 z"
       inkscape:transform-center-x="1.4904944"
       inkscape:transform-center-y="0.21314464"
       transform="matrix(0.73518568,0,0,0.70541277,36.41973,-28.483249)" />
    <path
       sodipodi:type="star"
       style="fill:#e9afaf;stroke:#787878;stroke-width:4.065;stroke-linejoin:round;stroke-dasharray:none"
       id="path6057"
       inkscape:flatsided="false"
       sodipodi:sides="12"
       sodipodi:cx="214.60371"
       sodipodi:cy="77.55481"
       sodipodi:r1="23.07025"
       sodipodi:r2="21.314131"
       sodipodi:arg1="1.2587542"
       sodipodi:arg2="1.5205536"
       inkscape:rounded="1.3877788e-16"
       inkscape:randomized="0"
       d="m 221.68634,99.510965 -6.0122,-0.668921 -5.91477,1.268666 -4.87225,-3.5854 -5.75668,-1.858685 -2.4268,-5.541179 -4.05608,-4.488006 0.66892,-6.012201 -1.26867,-5.914769 3.5854,-4.872258 1.85869,-5.756675 5.54118,-2.426798 4.488,-4.056085 6.0122,0.668921 5.91477,-1.268669 4.87226,3.585403 5.75668,1.858685 2.4268,5.541179 4.05608,4.488006 -0.66892,6.012201 1.26867,5.914769 -3.58541,4.872259 -1.85868,5.756674 -5.54118,2.426799 z"
       inkscape:transform-center-x="2.5368026e-06"
       transform="matrix(0.79901867,0,0,0.7833185,27.549553,-32.773723)" />
    <path
       sodipodi:type="star"
       style="fill:#ff00ff;stroke:#787878;stroke-width:1.52343;stroke-linejoin:round;stroke-dasharray:none"
       id="path6059"
       inkscape:flatsided="true"
       sodipodi:sides="6"
       sodipodi:cx="108.36425"
       sodipodi:cy="136.34064"
       sodipodi:r1="13.160168"
       sodipodi:r2="12.711746"
       sodipodi:arg1="1.1553042"
       sodipodi:arg2="1.678903"
       inkscape:rounded="1.3877788e-16"
       inkscape:randomized="0"
       d="m 113.67622,148.38111 -13.08334,-1.41993 -5.311971,-12.04047 7.771371,-10.62054 13.08334,1.41993 5.31197,12.04047 z"
       inkscape:transform-center-x="5.9724404e-06"
       inkscape:transform-center-y="2.0239849e-06"
       transform="matrix(1.5373083,0,0,1.5395141,-59.464474,-182.27607)" />
    <path
       sodipodi:type="star"
       style="fill:#00ff00;stroke:#787878;stroke-width:2.065;stroke-linejoin:round;stroke-dasharray:none"
       id="path6601"
       inkscape:flatsided="true"
       sodipodi:sides="3"
       sodipodi:cx="182.73187"
       sodipodi:cy="135.27824"
       sodipodi:r1="38.17564"
       sodipodi:r2="30.884743"
       sodipodi:arg1="0.64721167"
       sodipodi:arg2="1.6944092"
       inkscape:rounded="1.3877788e-16"
       inkscape:randomized="0"
       d="m 213.18718,158.29679 -65.61761,-8.15275 39.8693,-52.750143 z"
       inkscape:transform-center-x="1.9775505"
       inkscape:transform-center-y="-0.13014492"
       transform="matrix(0.57606793,0,0,0.5839528,-77.047834,-33.572511)" />
    <path
       sodipodi:type="star"
       style="fill:#cccccc;stroke:#787878;stroke-width:5.04414541;stroke-linejoin:round;stroke-dasharray:none"
       id="path6655"
       inkscape:flatsided="false"
       sodipodi:sides="5"
       sodipodi:cx="32.580101"
       sodipodi:cy="125.00843"
       sodipodi:r1="28.550997"
       sodipodi:r2="14.275499"
       sodipodi:arg1="1.1626472"
       sodipodi:arg2="1.7909657"
       inkscape:rounded="1.3877788e-16"
       inkscape:randomized="0"
       d="m 43.912311,151.21416 -14.449906,-12.27483 -18.303592,4.94469 7.208798,-17.53581 -10.3588035,-15.87976 18.9051875,1.43711 11.901499,-14.758919 4.475251,18.423999 17.714335,6.75824 -16.139331,9.94954 z"
       inkscape:transform-center-y="-1.2821573e-06"
       transform="matrix(0.80759901,0,0,0.77866205,15.846587,-8.1043817)" />
    <path
       sodipodi:type="star"
       style="fill:#d38d5f;stroke:#787878;stroke-width:4.60718926;stroke-linejoin:round;stroke-dasharray:none"
       id="path6657"
       inkscape:flatsided="false"
       sodipodi:sides="7"
       sodipodi:cx="101.63575"
       sodipodi:cy="133.86172"
       sodipodi:r1="32.880878"
       sodipodi:r2="16.440439"
       sodipodi:arg1="0.71680366"
       sodipodi:arg2="1.1656026"
       inkscape:rounded="1.3877788e-16"
       inkscape:randomized="0"
       d="m 126.42496,155.46375 -18.30844,-6.49283 -7.91409,17.74043 -6.338829,-18.36233 -18.804384,4.87349 10.404053,-16.40461 -15.53459,-11.66329 19.312466,-2.0939 -0.566933,-19.41737 13.678197,13.79357 14.82764,-12.54978 -2.25603,19.2942 19.05669,3.76805 -16.49143,10.2659 z"
       inkscape:transform-center-x="1.5449515"
       inkscape:transform-center-y="-0.56027463"
       transform="matrix(0.67951603,0,0,0.62398004,19.217846,-16.27855)" />
    <path
       sodipodi:type="star"
       style="fill:#c8b7b7;stroke:#787878;stroke-width:2.065;stroke-linejoin:round;stroke-dasharray:none"
       id="path6659"
       inkscape:flatsided="false"
       sodipodi:sides="9"
       sodipodi:cx="167.15009"
       sodipodi:cy="128.54974"
       sodipodi:r1="33.103249"
       sodipodi:r2="16.551624"
       sodipodi:arg1="0.96795802"
       sodipodi:arg2="1.3170239"
       inkscape:rounded="1.3877788e-16"
       inkscape:randomized="0"
       d="m 185.91906,155.81787 -14.61357,-11.24661 -7.30515,16.93154 -3.96546,-18.00882 -16.47946,8.27465 8.53813,-16.3445 -17.94284,-4.25404 17.04664,-7.03241 -11.01058,-14.79223 17.57883,5.57023 1.07367,-18.408961 9.88569,15.566491 12.65553,-13.411936 -2.43307,18.279026 18.31573,-2.13932 -13.61338,12.43859 15.4058,10.13431 -18.42383,0.77801 z"
       inkscape:transform-center-x="-0.17806146"
       inkscape:transform-center-y="-1.8957735"
       transform="matrix(0.68322546,0,0,0.65097904,24.445111,-15.176996)" />
    <path
       sodipodi:type="star"
       style="fill:#ffb380;stroke:#787878;stroke-width:2.065;stroke-linejoin:round;stroke-dasharray:none"
       id="path6661"
       inkscape:flatsided="false"
       sodipodi:sides="12"
       sodipodi:cx="231.24788"
       sodipodi:cy="115.09275"
       sodipodi:r1="37.62804"
       sodipodi:r2="18.814018"
       sodipodi:arg1="0.95929935"
       sodipodi:arg2="1.2210987"
       inkscape:rounded="1.3877788e-16"
       inkscape:randomized="0"
       d="m 252.8499,145.9022 -15.15608,-13.13412 -3.14276,19.80745 -6.55849,-18.95253 -12.62544,15.58238 3.79644,-19.69262 -18.72514,7.18202 13.13412,-15.15609 -19.80745,-3.14276 18.95253,-6.55849 -15.58238,-12.625439 19.69262,3.796439 -7.18202,-18.725135 15.15609,13.13412 3.14276,-19.807449 6.55849,18.952523 12.62544,-15.582374 -3.79644,19.692615 18.72513,-7.182015 -13.13412,15.156085 19.80745,3.14276 -18.95252,6.55849 15.58237,12.62544 -19.69261,-3.79644 z"
       inkscape:transform-center-x="-0.15837362"
       inkscape:transform-center-y="-2.1296716"
       transform="matrix(0.80975868,0,0,0.62515375,-92.347746,37.298916)" />
    <path
       sodipodi:type="star"
       style="fill:#ffb380;stroke:#787878;stroke-width:3;stroke-linejoin:round;stroke-dasharray:none"
       id="path6715"
       inkscape:flatsided="false"
       sodipodi:sides="4"
       sodipodi:cx="155.46375"
       sodipodi:cy="98.44857"
       sodipodi:r1="19.399815"
       sodipodi:r2="9.6999063"
       sodipodi:arg1="1.1970695"
       sodipodi:arg2="1.9824677"
       inkscape:rounded="1.3877788e-16"
       inkscape:randomized="0"
       d="m 162.54638,116.50928 -10.96397,-9.1712 -14.17937,-1.80688 9.17119,-10.963966 1.80688,-14.179371 10.96397,9.171196 14.17937,1.806881 -9.17119,10.96397 z"
       inkscape:transform-center-x="1.9585983e-06"
       inkscape:transform-center-y="-1.2402969e-06"
       transform="translate(7.0826307,10.269815)" />
    <path
       sodipodi:type="star"
       style="fill:#0000ff;stroke:#787878;stroke-width:2;stroke-linejoin:round;stroke-dasharray:none;paint-order:stroke fill markers"
       id="path6875"
       inkscape:flatsided="true"
       sodipodi:sides="3"
       sodipodi:cx="256.03711"
       sodipodi:cy="168.92075"
       sodipodi:r1="21.717821"
       sodipodi:r2="10.858911"
       sodipodi:arg1="0.41987996"
       sodipodi:arg2="1.4670775"
       inkscape:rounded="-0.573014"
       inkscape:randomized="0"
       d="m 275.86847,177.77403 c 8.7868,-19.68242 -50.06629,-13.55626 -37.41422,3.89454 12.65208,17.45079 36.77322,-36.58056 15.33435,-34.34893 -21.43887,2.23162 13.29308,50.13681 22.07987,30.45439 z"
       inkscape:transform-center-x="0.34583862"
       inkscape:transform-center-y="1.0803707"
       transform="translate(-7.7908938,-123.94604)" />
    <path
       sodipodi:type="star"
       style="fill:#0000ff;stroke:#787878;stroke-width:2;stroke-linejoin:round;stroke-dasharray:none;paint-order:stroke fill markers"
       id="path6897"
       inkscape:flatsided="true"
       sodipodi:sides="5"
       sodipodi:cx="133.50758"
       sodipodi:cy="169.629"
       sodipodi:r1="16.534569"
       sodipodi:r2="13.376746"
       sodipodi:arg1="0.7551044"
       sodipodi:arg2="1.3834229"
       inkscape:rounded="-0.64149538"
       inkscape:randomized="0"
       d="m 145.54806,180.96121 c 8.54588,-9.08 -30.37375,-1.70094 -19.09734,3.6208 11.27642,5.32175 -7.76832,-29.41277 -9.34499,-17.04375 -1.57667,12.36902 25.57266,-16.47716 13.32181,-14.15442 -12.25085,2.32273 23.5731,19.22932 17.57833,8.29583 -5.99477,-10.93349 -11.00369,28.36154 -2.45781,19.28154 z"
       inkscape:transform-center-x="0.95178675"
       inkscape:transform-center-y="-0.64607563"
       transform="translate(62.681282,-94.198988)" />
  </g>
</svg>
